<svg width="32" height="32" viewBox="0 0 32 32" fill="none" xmlns="http://www.w3.org/2000/svg">
<g clip-path="url(#clip0_886_2866)">
<path d="M12.6531 27.0459C12.7592 27.8504 13.1645 28.585 13.7878 29.1045C14.4067 29.6202 15.1954 29.8856 15.9998 29.8496C16.8043 29.8857 17.5937 29.6203 18.2126 29.1045C18.8358 28.585 19.2414 27.8503 19.3474 27.0459L19.3992 26.6504H12.6003L12.6531 27.0459ZM15.9998 5.88965C15.0298 5.80954 14.0552 5.97732 13.1687 6.37988C12.2728 6.78678 11.4967 7.41899 10.9167 8.21387L10.9089 8.22461L10.9021 8.23535C10.1301 9.48108 9.70064 10.9068 9.65405 12.3682L9.65015 12.6602V19.4443L9.34253 19.9756L6.66187 24.3164L6.33276 24.8496H25.6677L25.3376 24.3164L22.658 19.9756L22.3503 19.4463V12.6602C22.3552 11.0971 21.9208 9.56392 21.0974 8.23535L21.0906 8.22461L21.0828 8.21387L20.8562 7.92383C20.3069 7.26475 19.6149 6.73597 18.8308 6.37988C17.9443 5.97737 16.9697 5.80947 15.9998 5.88965ZM15.9998 2.15039C15.5525 2.12311 15.111 2.267 14.7673 2.55566C14.417 2.85001 14.1956 3.27017 14.1511 3.72559L14.1121 4.13477L14.5222 4.10938C15.007 4.07903 15.4935 4.07901 15.9783 4.10938L15.9998 4.11035L16.0222 4.10938C16.507 4.07903 16.9935 4.07901 17.4783 4.10938L17.8884 4.13477L17.8484 3.72559C17.8039 3.27014 17.5826 2.85001 17.2322 2.55566C16.8884 2.26697 16.4471 2.12301 15.9998 2.15039ZM7.85034 12.6494L7.84937 12.6396C7.7586 11.0625 8.11629 9.49195 8.88062 8.10938C9.64497 6.72674 10.7847 5.58812 12.1687 4.82617L12.3757 4.71289L12.3474 4.47852C12.3205 4.25377 12.3206 4.0265 12.3474 3.80176L12.3494 3.78613V3.77051C12.3635 3.3069 12.4694 2.8506 12.6599 2.42773C12.8505 2.00486 13.1227 1.62334 13.4607 1.30566C13.7986 0.988106 14.1959 0.740194 14.6296 0.576172C15.0635 0.41213 15.5254 0.33505 15.989 0.349609L15.9998 0.350586L16.0105 0.349609C16.4741 0.335049 16.937 0.4121 17.3708 0.576172C17.8046 0.740245 18.2019 0.988064 18.5398 1.30566C18.8777 1.62331 19.149 2.00492 19.3396 2.42773C19.5302 2.8506 19.636 3.30691 19.6501 3.77051V3.77832L19.6511 3.78613C19.669 4.02132 19.669 4.25797 19.6511 4.49316L19.6335 4.71777L19.8308 4.82617C21.2148 5.58812 22.3555 6.72674 23.1199 8.10938C23.8841 9.4919 24.2409 11.0626 24.1501 12.6396V18.9385L24.2009 19.0225L26.8611 23.3818C27.0589 23.7068 27.1673 24.0786 27.1746 24.459C27.1818 24.8394 27.0875 25.2155 26.9021 25.5479C26.7167 25.88 26.4463 26.157 26.1189 26.3506C25.7914 26.5443 25.4183 26.648 25.0378 26.6504H21.1726L21.1511 26.9766C21.0646 28.2691 20.4807 29.4782 19.5222 30.3496C18.5637 31.2209 17.3043 31.6871 16.0095 31.6504L15.9998 31.6494L15.99 31.6504C14.6953 31.6871 13.4367 31.2207 12.4783 30.3496C11.5198 29.4782 10.9358 28.2691 10.8494 26.9766L10.8269 26.6504H6.96167C6.5813 26.648 6.20803 26.5442 5.88062 26.3506C5.55324 26.1569 5.28275 25.88 5.09741 25.5479C4.91202 25.2155 4.8187 24.8394 4.82593 24.459C4.83319 24.0786 4.94063 23.7068 5.13843 23.3818L7.79858 19.0225L7.85034 18.9385V12.6494Z" fill="black" stroke="white" stroke-width="0.7"/>
<circle cx="24" cy="9.33325" r="8" fill="#DE2222"/>
<path d="M21.6833 12.6667V11.7967L24.4633 9.15675C24.6966 8.93675 24.8699 8.74341 24.9833 8.57675C25.0966 8.41008 25.1699 8.25675 25.2033 8.11675C25.2433 7.97008 25.2633 7.83341 25.2633 7.70675C25.2633 7.38675 25.1533 7.14008 24.9333 6.96675C24.7133 6.78675 24.3899 6.69675 23.9633 6.69675C23.6233 6.69675 23.3133 6.75675 23.0333 6.87675C22.7599 6.99675 22.5233 7.18008 22.3233 7.42675L21.4133 6.72675C21.6866 6.36008 22.0533 6.07675 22.5133 5.87675C22.9799 5.67008 23.4999 5.56675 24.0733 5.56675C24.5799 5.56675 25.0199 5.65008 25.3933 5.81675C25.7733 5.97675 26.0633 6.20675 26.2633 6.50675C26.4699 6.80675 26.5733 7.16341 26.5733 7.57675C26.5733 7.80341 26.5433 8.03008 26.4833 8.25675C26.4233 8.47675 26.3099 8.71008 26.1433 8.95675C25.9766 9.20341 25.7333 9.48008 25.4133 9.78675L23.0233 12.0567L22.7533 11.5667H26.8433V12.6667H21.6833Z" fill="white"/>
</g>
<defs>
<clipPath id="clip0_886_2866">
<rect width="32" height="32" fill="white"/>
</clipPath>
</defs>
</svg>
